%TF.GenerationSoftware,KiCad,Pcbnew,8.0.6*%
%TF.CreationDate,2024-11-07T12:50:37-05:00*%
%TF.ProjectId,minichord,6d696e69-6368-46f7-9264-2e6b69636164,rev?*%
%TF.SameCoordinates,Original*%
%TF.FileFunction,Legend,Bot*%
%TF.FilePolarity,Positive*%
%FSLAX46Y46*%
G04 Gerber Fmt 4.6, Leading zero omitted, Abs format (unit mm)*
G04 Created by KiCad (PCBNEW 8.0.6) date 2024-11-07 12:50:37*
%MOMM*%
%LPD*%
G01*
G04 APERTURE LIST*
%ADD10C,0.100000*%
%ADD11C,0.150000*%
G04 APERTURE END LIST*
D10*
X151501904Y-101402580D02*
X151501904Y-101926390D01*
X151501904Y-101926390D02*
X151454285Y-102021628D01*
X151454285Y-102021628D02*
X151359047Y-102069247D01*
X151359047Y-102069247D02*
X151168571Y-102069247D01*
X151168571Y-102069247D02*
X151073333Y-102021628D01*
X151501904Y-101450200D02*
X151406666Y-101402580D01*
X151406666Y-101402580D02*
X151168571Y-101402580D01*
X151168571Y-101402580D02*
X151073333Y-101450200D01*
X151073333Y-101450200D02*
X151025714Y-101545438D01*
X151025714Y-101545438D02*
X151025714Y-101640676D01*
X151025714Y-101640676D02*
X151073333Y-101735914D01*
X151073333Y-101735914D02*
X151168571Y-101783533D01*
X151168571Y-101783533D02*
X151406666Y-101783533D01*
X151406666Y-101783533D02*
X151501904Y-101831152D01*
X152406666Y-101402580D02*
X152406666Y-102402580D01*
X152406666Y-101450200D02*
X152311428Y-101402580D01*
X152311428Y-101402580D02*
X152120952Y-101402580D01*
X152120952Y-101402580D02*
X152025714Y-101450200D01*
X152025714Y-101450200D02*
X151978095Y-101497819D01*
X151978095Y-101497819D02*
X151930476Y-101593057D01*
X151930476Y-101593057D02*
X151930476Y-101878771D01*
X151930476Y-101878771D02*
X151978095Y-101974009D01*
X151978095Y-101974009D02*
X152025714Y-102021628D01*
X152025714Y-102021628D02*
X152120952Y-102069247D01*
X152120952Y-102069247D02*
X152311428Y-102069247D01*
X152311428Y-102069247D02*
X152406666Y-102021628D01*
X153311428Y-101402580D02*
X153311428Y-101926390D01*
X153311428Y-101926390D02*
X153263809Y-102021628D01*
X153263809Y-102021628D02*
X153168571Y-102069247D01*
X153168571Y-102069247D02*
X152978095Y-102069247D01*
X152978095Y-102069247D02*
X152882857Y-102021628D01*
X153311428Y-101450200D02*
X153216190Y-101402580D01*
X153216190Y-101402580D02*
X152978095Y-101402580D01*
X152978095Y-101402580D02*
X152882857Y-101450200D01*
X152882857Y-101450200D02*
X152835238Y-101545438D01*
X152835238Y-101545438D02*
X152835238Y-101640676D01*
X152835238Y-101640676D02*
X152882857Y-101735914D01*
X152882857Y-101735914D02*
X152978095Y-101783533D01*
X152978095Y-101783533D02*
X153216190Y-101783533D01*
X153216190Y-101783533D02*
X153311428Y-101831152D01*
X153644762Y-102069247D02*
X154025714Y-102069247D01*
X153787619Y-101402580D02*
X153787619Y-102259723D01*
X153787619Y-102259723D02*
X153835238Y-102354961D01*
X153835238Y-102354961D02*
X153930476Y-102402580D01*
X153930476Y-102402580D02*
X154025714Y-102402580D01*
X154359048Y-101402580D02*
X154359048Y-102069247D01*
X154359048Y-101878771D02*
X154406667Y-101974009D01*
X154406667Y-101974009D02*
X154454286Y-102021628D01*
X154454286Y-102021628D02*
X154549524Y-102069247D01*
X154549524Y-102069247D02*
X154644762Y-102069247D01*
X155406667Y-102069247D02*
X155406667Y-101402580D01*
X154978096Y-102069247D02*
X154978096Y-101545438D01*
X154978096Y-101545438D02*
X155025715Y-101450200D01*
X155025715Y-101450200D02*
X155120953Y-101402580D01*
X155120953Y-101402580D02*
X155263810Y-101402580D01*
X155263810Y-101402580D02*
X155359048Y-101450200D01*
X155359048Y-101450200D02*
X155406667Y-101497819D01*
X155882858Y-101402580D02*
X155882858Y-102069247D01*
X155882858Y-102402580D02*
X155835239Y-102354961D01*
X155835239Y-102354961D02*
X155882858Y-102307342D01*
X155882858Y-102307342D02*
X155930477Y-102354961D01*
X155930477Y-102354961D02*
X155882858Y-102402580D01*
X155882858Y-102402580D02*
X155882858Y-102307342D01*
X156216191Y-102069247D02*
X156597143Y-102069247D01*
X156359048Y-102402580D02*
X156359048Y-101545438D01*
X156359048Y-101545438D02*
X156406667Y-101450200D01*
X156406667Y-101450200D02*
X156501905Y-101402580D01*
X156501905Y-101402580D02*
X156597143Y-101402580D01*
X157454286Y-101402580D02*
X156882858Y-101402580D01*
X157168572Y-101402580D02*
X157168572Y-102402580D01*
X157168572Y-102402580D02*
X157073334Y-102259723D01*
X157073334Y-102259723D02*
X156978096Y-102164485D01*
X156978096Y-102164485D02*
X156882858Y-102116866D01*
D11*
X93761904Y-76614819D02*
X93761904Y-77424342D01*
X93761904Y-77424342D02*
X93714285Y-77519580D01*
X93714285Y-77519580D02*
X93666666Y-77567200D01*
X93666666Y-77567200D02*
X93571428Y-77614819D01*
X93571428Y-77614819D02*
X93380952Y-77614819D01*
X93380952Y-77614819D02*
X93285714Y-77567200D01*
X93285714Y-77567200D02*
X93238095Y-77519580D01*
X93238095Y-77519580D02*
X93190476Y-77424342D01*
X93190476Y-77424342D02*
X93190476Y-76614819D01*
X92190476Y-77614819D02*
X92761904Y-77614819D01*
X92476190Y-77614819D02*
X92476190Y-76614819D01*
X92476190Y-76614819D02*
X92571428Y-76757676D01*
X92571428Y-76757676D02*
X92666666Y-76852914D01*
X92666666Y-76852914D02*
X92761904Y-76900533D01*
D10*
%TO.C,adafruit1*%
X145350000Y-120275000D02*
X145350000Y-83445000D01*
X147890000Y-80905000D02*
X160590000Y-80905000D01*
X160590000Y-122815000D02*
X147890000Y-122815000D01*
X163130000Y-83445000D02*
X163130000Y-120275000D01*
X145350000Y-83445000D02*
G75*
G02*
X147890000Y-80905000I2540001J-1D01*
G01*
X147890000Y-122815000D02*
G75*
G02*
X145350000Y-120275000I1J2540001D01*
G01*
X160590000Y-80905000D02*
G75*
G02*
X163130000Y-83445000I0J-2540000D01*
G01*
X163130000Y-120275000D02*
G75*
G02*
X160590000Y-122815000I-2540000J0D01*
G01*
D11*
%TO.C,U1*%
X61250000Y-63190000D02*
X62520000Y-63190000D01*
X61250000Y-70810000D02*
X61250000Y-63190000D01*
X62520000Y-58110000D02*
X123480000Y-58110000D01*
X62520000Y-63190000D02*
X67600000Y-63190000D01*
X62520000Y-70810000D02*
X61250000Y-70810000D01*
X62520000Y-70810000D02*
X67600000Y-70810000D01*
X62520000Y-75890000D02*
X62520000Y-58110000D01*
X67600000Y-70810000D02*
X67600000Y-63190000D01*
X123480000Y-58110000D02*
X123480000Y-75890000D01*
X123480000Y-75890000D02*
X62520000Y-75890000D01*
%TD*%
M02*
