%TF.GenerationSoftware,KiCad,Pcbnew,8.0.6*%
%TF.CreationDate,2024-11-07T12:50:37-05:00*%
%TF.ProjectId,minichord,6d696e69-6368-46f7-9264-2e6b69636164,rev?*%
%TF.SameCoordinates,Original*%
%TF.FileFunction,Soldermask,Bot*%
%TF.FilePolarity,Negative*%
%FSLAX46Y46*%
G04 Gerber Fmt 4.6, Leading zero omitted, Abs format (unit mm)*
G04 Created by KiCad (PCBNEW 8.0.6) date 2024-11-07 12:50:37*
%MOMM*%
%LPD*%
G01*
G04 APERTURE LIST*
%ADD10R,2.000000X2.000000*%
%ADD11C,2.000000*%
%ADD12R,3.000000X2.500000*%
%ADD13C,2.700000*%
%ADD14C,1.800000*%
%ADD15C,1.700000*%
%ADD16C,4.000000*%
%ADD17C,2.200000*%
%ADD18C,2.540000*%
%ADD19R,1.800000X1.800000*%
%ADD20R,1.600000X1.600000*%
%ADD21C,1.600000*%
G04 APERTURE END LIST*
D10*
%TO.C,SW8*%
X172500000Y-52000000D03*
D11*
X172500000Y-57000000D03*
X172500000Y-54500000D03*
D12*
X180000000Y-48900000D03*
X180000000Y-60100000D03*
D11*
X187000000Y-52000000D03*
X187000000Y-57000000D03*
%TD*%
D13*
%TO.C,Adafruit_SSD1306*%
X136648000Y-44616000D03*
X136648000Y-69000000D03*
X159000000Y-44616000D03*
X159000000Y-69000000D03*
D14*
X144014000Y-44616000D03*
X146554000Y-44616000D03*
X149094000Y-44616000D03*
X151634000Y-44616000D03*
%TD*%
D15*
%TO.C,SW7*%
X76790000Y-93080000D03*
D16*
X81870000Y-93080000D03*
D15*
X86950000Y-93080000D03*
D17*
X84410000Y-88000000D03*
X78060000Y-90540000D03*
%TD*%
D15*
%TO.C,SW6*%
X96750000Y-93080000D03*
D16*
X101830000Y-93080000D03*
D15*
X106910000Y-93080000D03*
D17*
X104370000Y-88000000D03*
X98020000Y-90540000D03*
%TD*%
D13*
%TO.C,H1*%
X60000000Y-42000000D03*
%TD*%
%TO.C,H2*%
X194000000Y-42000000D03*
%TD*%
D15*
%TO.C,SW5*%
X116710000Y-93080000D03*
D16*
X121790000Y-93080000D03*
D15*
X126870000Y-93080000D03*
D17*
X124330000Y-88000000D03*
X117980000Y-90540000D03*
%TD*%
D15*
%TO.C,SW3*%
X86680000Y-113540000D03*
D16*
X91760000Y-113540000D03*
D15*
X96840000Y-113540000D03*
D17*
X94300000Y-108460000D03*
X87950000Y-111000000D03*
%TD*%
D15*
%TO.C,SW4*%
X66540000Y-113540000D03*
D16*
X71620000Y-113540000D03*
D15*
X76700000Y-113540000D03*
D17*
X74160000Y-108460000D03*
X67810000Y-111000000D03*
%TD*%
D13*
%TO.C,H4*%
X60000000Y-126000000D03*
%TD*%
D15*
%TO.C,SW1*%
X126960000Y-113540000D03*
D16*
X132040000Y-113540000D03*
D15*
X137120000Y-113540000D03*
D17*
X134580000Y-108460000D03*
X128230000Y-111000000D03*
%TD*%
D15*
%TO.C,SW2*%
X106820000Y-113540000D03*
D16*
X111900000Y-113540000D03*
D15*
X116980000Y-113540000D03*
D17*
X114440000Y-108460000D03*
X108090000Y-111000000D03*
%TD*%
D13*
%TO.C,H3*%
X194000000Y-126000000D03*
%TD*%
D18*
%TO.C,adafruit1*%
X147890000Y-83445000D03*
X147890000Y-120275000D03*
X160590000Y-83445000D03*
X160590000Y-120275000D03*
D19*
X146620000Y-117100000D03*
D14*
X146620000Y-114560000D03*
X146620000Y-112020000D03*
X146620000Y-109480000D03*
X146620000Y-106940000D03*
X146620000Y-104400000D03*
X146620000Y-101860000D03*
X146620000Y-99320000D03*
X146620000Y-96780000D03*
X146620000Y-94240000D03*
X146620000Y-91700000D03*
X146620000Y-89160000D03*
X146620000Y-86620000D03*
D19*
X161860000Y-117100000D03*
D14*
X161860000Y-114560000D03*
X161860000Y-112020000D03*
X161860000Y-109480000D03*
X161860000Y-106940000D03*
X161860000Y-104400000D03*
X161860000Y-101860000D03*
X161860000Y-99320000D03*
X161860000Y-96780000D03*
X161860000Y-94240000D03*
X161860000Y-91700000D03*
X161860000Y-89160000D03*
X161860000Y-86620000D03*
%TD*%
D20*
%TO.C,U1*%
X63790000Y-59380000D03*
D21*
X66330000Y-59380000D03*
X68870000Y-59380000D03*
X71410000Y-59380000D03*
X73950000Y-59380000D03*
X76490000Y-59380000D03*
X79030000Y-59380000D03*
X81570000Y-59380000D03*
X84110000Y-59380000D03*
X86650000Y-59380000D03*
X89190000Y-59380000D03*
X91730000Y-59380000D03*
X94270000Y-59380000D03*
X96810000Y-59380000D03*
X99350000Y-59380000D03*
X101890000Y-59380000D03*
X104430000Y-59380000D03*
X106970000Y-59380000D03*
X109510000Y-59380000D03*
X112050000Y-59380000D03*
X114590000Y-59380000D03*
X117130000Y-59380000D03*
X119670000Y-59380000D03*
X122210000Y-59380000D03*
X122210000Y-74620000D03*
X119670000Y-74620000D03*
X117130000Y-74620000D03*
X114590000Y-74620000D03*
X112050000Y-74620000D03*
X109510000Y-74620000D03*
X106970000Y-74620000D03*
X104430000Y-74620000D03*
X101890000Y-74620000D03*
X99350000Y-74620000D03*
X96810000Y-74620000D03*
X94270000Y-74620000D03*
X91730000Y-74620000D03*
X89190000Y-74620000D03*
X86650000Y-74620000D03*
X84110000Y-74620000D03*
X81570000Y-74620000D03*
X79030000Y-74620000D03*
X76490000Y-74620000D03*
X73950000Y-74620000D03*
X71410000Y-74620000D03*
X68870000Y-74620000D03*
X66330000Y-74620000D03*
X63790000Y-74620000D03*
%TD*%
M02*
