M48
; DRILL file {KiCad 8.0.6} date 2024-11-07T12:50:42-0500
; FORMAT={-:-/ absolute / inch / decimal}
; #@! TF.CreationDate,2024-11-07T12:50:42-05:00
; #@! TF.GenerationSoftware,Kicad,Pcbnew,8.0.6
; #@! TF.FileFunction,MixedPlating,1,2
FMAT,2
INCH
; #@! TA.AperFunction,Plated,PTH,ViaDrill
T1C0.0236
; #@! TA.AperFunction,Plated,PTH,ComponentDrill
T2C0.0394
; #@! TA.AperFunction,Plated,PTH,ComponentDrill
T3C0.0433
; #@! TA.AperFunction,Plated,PTH,ComponentDrill
T4C0.0591
; #@! TA.AperFunction,Plated,PTH,ComponentDrill
T5C0.0787
; #@! TA.AperFunction,NonPlated,NPTH,ComponentDrill
T6C0.0669
; #@! TA.AperFunction,NonPlated,NPTH,ComponentDrill
T7C0.1000
; #@! TA.AperFunction,NonPlated,NPTH,ComponentDrill
T8C0.1063
; #@! TA.AperFunction,NonPlated,NPTH,ComponentDrill
T9C0.1575
%
G90
G05
T1
X5.509Y-2.622
X5.5906Y-2.6133
X5.6693Y-2.2047
X5.7698Y-2.1829
X7.0717Y-2.8441
X7.0717Y-3.1197
X7.0717Y-3.3622
X7.0717Y-3.6709
X7.0717Y-3.9465
X7.0717Y-4.222
X7.0717Y-4.4976
X7.0717Y-4.7732
T2
X5.6698Y-1.7565
X5.7698Y-1.7565
X5.7724Y-3.4102
X5.7724Y-3.5102
X5.7724Y-3.6102
X5.7724Y-3.7102
X5.7724Y-3.8102
X5.7724Y-3.9102
X5.7724Y-4.0102
X5.7724Y-4.1102
X5.7724Y-4.2102
X5.7724Y-4.3102
X5.7724Y-4.4102
X5.7724Y-4.5102
X5.7724Y-4.6102
X5.8698Y-1.7565
X5.9698Y-1.7565
X6.3724Y-3.4102
X6.3724Y-3.5102
X6.3724Y-3.6102
X6.3724Y-3.7102
X6.3724Y-3.8102
X6.3724Y-3.9102
X6.3724Y-4.0102
X6.3724Y-4.1102
X6.3724Y-4.2102
X6.3724Y-4.3102
X6.3724Y-4.4102
X6.3724Y-4.5102
X6.3724Y-4.6102
X6.7913Y-2.0472
X6.7913Y-2.1457
X6.7913Y-2.2441
X7.3622Y-2.0472
X7.3622Y-2.2441
T3
X2.5114Y-2.3378
X2.5114Y-2.9378
X2.6114Y-2.3378
X2.6114Y-2.9378
X2.7114Y-2.3378
X2.7114Y-2.9378
X2.8114Y-2.3378
X2.8114Y-2.9378
X2.9114Y-2.3378
X2.9114Y-2.9378
X3.0114Y-2.3378
X3.0114Y-2.9378
X3.1114Y-2.3378
X3.1114Y-2.9378
X3.2114Y-2.3378
X3.2114Y-2.9378
X3.3114Y-2.3378
X3.3114Y-2.9378
X3.4114Y-2.3378
X3.4114Y-2.9378
X3.5114Y-2.3378
X3.5114Y-2.9378
X3.6114Y-2.3378
X3.6114Y-2.9378
X3.7114Y-2.3378
X3.7114Y-2.9378
X3.8114Y-2.3378
X3.8114Y-2.9378
X3.9114Y-2.3378
X3.9114Y-2.9378
X4.0114Y-2.3378
X4.0114Y-2.9378
X4.1114Y-2.3378
X4.1114Y-2.9378
X4.2114Y-2.3378
X4.2114Y-2.9378
X4.3114Y-2.3378
X4.3114Y-2.9378
X4.4114Y-2.3378
X4.4114Y-2.9378
X4.5114Y-2.3378
X4.5114Y-2.9378
X4.6114Y-2.3378
X4.6114Y-2.9378
X4.7114Y-2.3378
X4.7114Y-2.9378
X4.8114Y-2.3378
X4.8114Y-2.9378
T4
X2.6697Y-4.3701
X2.9197Y-4.2701
X3.0732Y-3.5646
X3.3232Y-3.4646
X3.4626Y-4.3701
X3.7126Y-4.2701
X3.8591Y-3.5646
X4.1091Y-3.4646
X4.2555Y-4.3701
X4.5055Y-4.2701
X4.6449Y-3.5646
X4.8949Y-3.4646
X5.0484Y-4.3701
X5.2984Y-4.2701
T6
X2.6197Y-4.4701
X3.0197Y-4.4701
X3.0232Y-3.6646
X3.4126Y-4.4701
X3.4232Y-3.6646
X3.8091Y-3.6646
X3.8126Y-4.4701
X4.2055Y-4.4701
X4.2091Y-3.6646
X4.5949Y-3.6646
X4.6055Y-4.4701
X4.9949Y-3.6646
X4.9984Y-4.4701
X5.3984Y-4.4701
T7
X5.8224Y-3.2852
X5.8224Y-4.7352
X6.3224Y-3.2852
X6.3224Y-4.7352
T8
X2.3622Y-1.6535
X2.3622Y-4.9606
X5.3798Y-1.7565
X5.3798Y-2.7165
X6.2598Y-1.7565
X6.2598Y-2.7165
X7.6378Y-1.6535
X7.6378Y-4.9606
T9
X2.8197Y-4.4701
X3.2232Y-3.6646
X3.6126Y-4.4701
X4.0091Y-3.6646
X4.4055Y-4.4701
X4.7949Y-3.6646
X5.1984Y-4.4701
T5
G00X7.0768Y-1.9252
M15
G01X7.0965Y-1.9252
M16
G05
G00X7.0768Y-2.3661
M15
G01X7.0965Y-2.3661
M16
G05
M30
